<?xml version="1.0" encoding="UTF-8" standalone="no"?>
<!-- Created with Inkscape (http://www.inkscape.org/) -->

<svg
   width="10000"
   height="175"
   viewBox="0 0 2645.8333 46.302083"
   version="1.1"
   id="svg5"
   inkscape:version="1.2 (dc2aedaf03, 2022-05-15)"
   sodipodi:docname="font.svg"
   inkscape:export-filename="font1.png"
   inkscape:export-xdpi="3.8399999"
   inkscape:export-ydpi="3.8399999"
   xmlns:inkscape="http://www.inkscape.org/namespaces/inkscape"
   xmlns:sodipodi="http://sodipodi.sourceforge.net/DTD/sodipodi-0.dtd"
   xmlns="http://www.w3.org/2000/svg"
   xmlns:svg="http://www.w3.org/2000/svg">
  <sodipodi:namedview
     id="namedview7"
     pagecolor="#ffffff"
     bordercolor="#666666"
     borderopacity="1.0"
     inkscape:showpageshadow="false"
     inkscape:pageopacity="1"
     inkscape:pagecheckerboard="0"
     inkscape:deskcolor="#d1d1d1"
     inkscape:document-units="mm"
     showgrid="true"
     inkscape:zoom="0.32153204"
     inkscape:cx="1607.9269"
     inkscape:cy="-842.8398"
     inkscape:window-width="1920"
     inkscape:window-height="1057"
     inkscape:window-x="-8"
     inkscape:window-y="-8"
     inkscape:window-maximized="1"
     inkscape:current-layer="layer1">
    <inkscape:grid
       type="xygrid"
       id="grid456"
       spacingx="6.6145833"
       spacingy="6.6145833"
       dotted="true"
       empspacing="1"
       originx="0"
       originy="0" />
  </sodipodi:namedview>
  <defs
     id="defs2" />
  <g
     inkscape:label="Ebene 1"
     inkscape:groupmode="layer"
     id="layer1"
     transform="translate(0,2.0691275)">
    <path
       id="rect510-805"
       style="opacity:0.999;stroke-width:0.264999;stroke-miterlimit:4.01728;stop-color:#000000"
       d="m 6.6145828,-2.0691234 v 6.61458 h 6.6145842 6.614583 6.614583 v -6.61458 H 19.84375 13.229167 Z m 19.8437502,6.61458 v 6.6145804 6.61459 6.61458 H 19.84375 13.229167 6.6145828 v -6.61458 -6.61459 -6.6145804 H -4.9999958e-7 v 6.6145804 6.61459 6.61458 6.61458 6.614586 6.614583 H 6.6145828 v -6.614583 -6.614586 h 6.6145842 6.614583 6.614583 v 6.614586 6.614583 h 6.614584 v -6.614583 -6.614586 -6.61458 -6.61458 -6.61459 -6.6145804 z m 13.229167,-6.61458 v 6.61458 6.6145804 6.61459 6.61458 6.61458 6.614586 6.614583 h 6.614583 6.614584 6.614583 6.614583 V 37.618373 H 59.53125 52.916667 46.302083 v -6.614586 -6.61458 h 6.614584 6.614583 6.614583 v -6.61458 H 59.53125 52.916667 46.302083 v -6.61459 -6.6145804 h 6.614584 6.614583 6.614583 v -6.61458 H 59.53125 52.916667 46.302083 Z m 26.458333,6.61458 v 6.6145804 6.61459 h 6.614584 v -6.61459 -6.6145804 z m 0,19.8437504 v 6.61458 6.614586 h 6.614584 v -6.614586 -6.61458 z m 19.84375,-26.4583304 v 6.61458 h 6.614584 6.614583 6.61458 6.61459 v -6.61458 h -6.61459 -6.61458 -6.614583 z m 0,6.61458 H 79.375 v 6.6145804 6.61459 6.61458 6.61458 6.614586 h 6.614583 v -6.614586 -6.61458 -6.61458 -6.61459 z m 0,33.0729164 v 6.614583 h 6.614584 6.614583 6.61458 6.61459 v -6.614583 h -6.61459 -6.61458 -6.614583 z M 119.0625,-2.0691234 v 6.61458 6.6145804 6.61459 6.61458 6.61458 6.614586 6.614583 h 6.61458 6.61459 6.61458 6.61458 v -6.614583 h -6.61458 -6.61458 -6.61459 v -6.614586 -6.61458 -6.61458 -6.61459 -6.6145804 h 6.61459 6.61458 6.61458 v -6.61458 h -6.61458 -6.61458 -6.61459 z m 26.45833,6.61458 v 6.6145804 6.61459 6.61458 6.61458 6.614586 h 6.61459 v -6.614586 -6.61458 -6.61458 -6.61459 -6.6145804 z m 13.22917,-6.61458 v 6.61458 6.6145804 6.61459 6.61458 6.61458 6.614586 6.614583 h 6.61458 6.61459 6.61458 6.61458 6.61459 v -6.614583 h -6.61459 -6.61458 -6.61458 -6.61459 v -6.614586 -6.61458 h 6.61459 6.61458 6.61458 6.61459 v -6.61458 h -6.61459 -6.61458 -6.61458 -6.61459 v -6.61459 -6.6145804 h 6.61459 6.61458 6.61458 6.61459 v -6.61458 h -6.61459 -6.61458 -6.61458 -6.61459 z m 39.6875,0 v 6.61458 6.6145804 6.61459 6.61458 6.61458 6.614586 6.614583 h 6.61458 v -6.614583 -6.614586 -6.61458 h 6.61459 6.61458 6.61458 v -6.61458 h -6.61458 -6.61458 -6.61459 v -6.61459 -6.6145804 h 6.61459 6.61458 6.61458 6.61459 v -6.61458 h -6.61459 -6.61458 -6.61458 -6.61459 z m 46.30208,0 v 6.61458 h 6.61459 6.61458 6.61458 6.61459 v -6.61458 h -6.61459 -6.61458 -6.61458 z m 0,6.61458 H 238.125 v 6.6145804 6.61459 6.61458 6.61458 6.614586 h 6.61458 v -6.614586 -6.61458 -6.61458 -6.61459 z m 0,33.0729164 v 6.614583 h 6.61459 6.61458 6.61458 v -6.614583 h -6.61458 -6.61458 z m 19.84375,0 h 6.61459 v -6.614586 -6.61458 -6.61458 h -6.61459 -6.61458 -6.61458 v 6.61458 h 6.61458 6.61458 v 6.61458 z M 277.8125,-2.0691234 v 6.61458 6.6145804 6.61459 6.61458 6.61458 6.614586 6.614583 h 6.61458 v -6.614583 -6.614586 -6.61458 h 6.61459 6.61458 6.61458 v 6.61458 6.614586 6.614583 h 6.61459 v -6.614583 -6.614586 -6.61458 -6.61458 -6.61459 -6.6145804 -6.61458 h -6.61459 v 6.61458 6.6145804 6.61459 h -6.61458 -6.61458 -6.61459 v -6.61459 -6.6145804 -6.61458 z m 39.6875,0 v 6.61458 6.6145804 6.61459 6.61458 6.61458 6.614586 6.614583 h 6.61458 v -6.614583 -6.614586 -6.61458 -6.61458 -6.61459 -6.6145804 -6.61458 z m 39.6875,0 v 6.61458 6.6145804 6.61459 6.61458 6.61458 6.614586 h 6.61458 v -6.614586 -6.61458 -6.61458 -6.61459 -6.6145804 -6.61458 z m 0,39.6874964 h -6.61458 -6.61459 -6.61458 v 6.614583 h 6.61458 6.61459 6.61458 z m -19.84375,0 v -6.614586 -6.61458 h -6.61458 v 6.61458 6.614586 z m 33.07292,-39.6874964 v 6.61458 6.6145804 6.61459 6.61458 6.61458 6.614586 6.614583 h 6.61458 v -6.614583 -6.614586 -6.61458 h 6.61458 v -6.61458 h -6.61458 v -6.61459 -6.6145804 -6.61458 z m 13.22916,19.8437504 h 6.61459 v -6.61459 h -6.61459 z m 6.61459,-6.61459 H 396.875 V 4.5454566 h -6.61458 z M 396.875,4.5454566 h 6.61458 v -6.61458 H 396.875 Z M 383.64583,24.389207 v 6.61458 h 6.61459 v -6.61458 z m 6.61459,6.61458 v 6.614586 h 6.61458 v -6.614586 z m 6.61458,6.614586 v 6.614583 h 6.61458 v -6.614583 z m 13.22917,-39.6874964 v 6.61458 6.6145804 6.61459 6.61458 6.61458 6.614586 6.614583 h 6.61458 6.61458 6.61459 6.61458 6.61458 v -6.614583 h -6.61458 -6.61458 -6.61459 -6.61458 v -6.614586 -6.61458 -6.61458 -6.61459 -6.6145804 -6.61458 z m 39.6875,0 v 6.61458 6.6145804 6.61459 6.61458 6.61458 6.614586 6.614583 h 6.61458 v -6.614583 -6.614586 -6.61458 -6.61458 -6.61459 h 6.61458 V 4.5454566 h -6.61458 v -6.61458 z m 13.22916,13.2291604 v 6.61459 6.61458 h 6.61459 v -6.61458 -6.61459 z m 6.61459,0 H 476.25 v 6.61459 6.61458 6.61458 6.614586 6.614583 h 6.61458 v -6.614583 -6.614586 -6.61458 -6.61458 -6.61459 -6.6145804 -6.61458 H 476.25 v 6.61458 h -6.61458 z m 19.84375,-13.2291604 v 6.61458 6.6145804 6.61459 6.61458 6.61458 6.614586 6.614583 h 6.61458 v -6.614583 -6.614586 -6.61458 -6.61458 h 6.61458 v -6.61459 h -6.61458 v -6.6145804 -6.61458 z m 13.22916,19.8437504 v 6.61458 h 6.61459 v -6.61458 z m 6.61459,6.61458 v 6.61458 h 6.61458 v 6.614586 6.614583 h 6.61458 v -6.614583 -6.614586 -6.61458 -6.61458 -6.61459 -6.6145804 -6.61458 h -6.61458 v 6.61458 6.6145804 6.61459 6.61458 z m 19.84375,-26.4583304 v 6.61458 6.6145804 6.61459 6.61458 6.61458 6.614586 6.614583 h 6.61458 6.61458 6.61459 6.61458 6.61458 v -6.614583 -6.614586 -6.61458 -6.61458 -6.61459 -6.6145804 -6.61458 h -6.61458 -6.61458 -6.61459 -6.61458 z m 39.6875,0 v 6.61458 6.6145804 6.61459 6.61458 6.61458 6.614586 6.614583 h 6.61458 v -6.614583 -6.614586 -6.61458 h 6.61458 6.61459 6.61458 v -6.61458 h -6.61458 -6.61459 -6.61458 v -6.61459 -6.6145804 h 6.61458 6.61459 6.61458 v -6.61458 h -6.61458 -6.61459 -6.61458 z m 26.45833,6.61458 v 6.6145804 6.61459 h 6.61458 v -6.61459 -6.6145804 z m 19.84375,-6.61458 v 6.61458 h 6.61458 6.61459 H 635 v -6.61458 h -6.61458 -6.61459 z M 635,4.5454566 v 6.6145804 6.61459 6.61458 6.61458 h 6.61458 v -6.61458 -6.61458 -6.61459 -6.6145804 z m 0,26.4583304 h -6.61458 v 6.614586 H 635 Z m 0,6.614586 v 6.614583 h 6.61458 v -6.614583 z m -6.61458,0 h -6.61459 -6.61458 v 6.614583 h 6.61458 6.61459 z m -13.22917,0 v -6.614586 -6.61458 -6.61458 -6.61459 -6.6145804 h -6.61458 v 6.6145804 6.61459 6.61458 6.61458 6.614586 z m 13.22917,-6.614586 v -6.61458 h -6.61459 v 6.61458 z m 19.84375,-33.0729104 v 6.61458 6.6145804 6.61459 6.61458 6.61458 6.614586 6.614583 h 6.61458 v -6.614583 -6.614586 -6.61458 h 6.61458 v 6.61458 h 6.61459 v -6.61458 h 6.61458 v -6.61458 h -6.61458 -6.61459 -6.61458 v -6.61459 -6.6145804 h 6.61458 6.61459 6.61458 v -6.61458 h -6.61458 -6.61459 -6.61458 z m 26.45833,6.61458 v 6.6145804 6.61459 h 6.61458 v -6.61459 -6.6145804 z m -6.61458,26.4583304 v 6.614586 h 6.61458 v -6.614586 z m 6.61458,6.614586 v 6.614583 h 6.61458 v -6.614583 z m 19.84375,-39.6874964 v 6.61458 h 6.61458 6.61459 6.61458 6.61458 v -6.61458 h -6.61458 -6.61458 -6.61459 z m 0,6.61458 h -6.61458 v 6.6145804 6.61459 6.61458 h 6.61458 6.61458 6.61459 6.61458 v 6.61458 6.614586 h 6.61458 v -6.614586 -6.61458 -6.61458 h -6.61458 -6.61458 -6.61459 -6.61458 v -6.61459 z M 714.375,37.618373 h -6.61458 -6.61459 -6.61458 -6.61458 v 6.614583 h 6.61458 6.61458 6.61459 6.61458 z m 13.22917,-39.6874964 v 6.61458 h 6.61458 6.61458 v 6.6145804 6.61459 6.61458 6.61458 6.614586 6.614583 h 6.61459 v -6.614583 -6.614586 -6.61458 -6.61458 -6.61459 -6.6145804 h 6.61458 6.61458 v -6.61458 h -6.61458 -6.61458 -6.61459 -6.61458 z m 39.6875,0 v 6.61458 6.6145804 6.61459 6.61458 6.61458 6.614586 6.614583 h 6.61458 6.61458 6.61459 6.61458 6.61458 v -6.614583 -6.614586 -6.61458 -6.61458 -6.61459 -6.6145804 -6.61458 H 793.75 v 6.61458 6.6145804 6.61459 6.61458 6.61458 6.614586 h -6.61458 -6.61459 -6.61458 v -6.614586 -6.61458 -6.61458 -6.61459 -6.6145804 -6.61458 z m 39.6875,0 v 6.61458 6.6145804 6.61459 6.61458 6.61458 h 6.61458 v -6.61458 -6.61458 -6.61459 -6.6145804 -6.61458 z m 6.61458,33.0729104 v 6.614586 h 6.61458 v -6.614586 z m 6.61458,6.614586 v 6.614583 h 6.61459 v -6.614583 z m 6.61459,0 h 6.61458 v -6.614586 h -6.61458 z m 6.61458,-6.614586 h 6.61458 v -6.61458 -6.61458 -6.61459 -6.6145804 -6.61458 h -6.61458 v 6.61458 6.6145804 6.61459 6.61458 z m 13.22917,-33.0729104 v 6.61458 6.6145804 6.61459 6.61458 6.61458 6.614586 6.614583 h 6.61458 v -6.614583 h 6.61458 v -6.614586 h -6.61458 v -6.61458 -6.61458 -6.61459 -6.6145804 -6.61458 z m 13.22916,33.0729104 h 6.61459 v -6.61458 -6.61458 h -6.61459 v 6.61458 z m 6.61459,0 v 6.614586 h 6.61458 v 6.614583 h 6.61458 v -6.614583 -6.614586 -6.61458 -6.61458 -6.61459 -6.6145804 -6.61458 H 873.125 v 6.61458 6.6145804 6.61459 6.61458 6.61458 z m 19.84375,-33.0729104 v 6.61458 6.6145804 h 6.61458 v -6.6145804 -6.61458 z m 6.61458,13.2291604 v 6.61459 h 6.61458 v -6.61459 z m 6.61458,6.61459 v 6.61458 h 6.61459 v -6.61458 z m 6.61459,0 h 6.61458 v -6.61459 h -6.61458 z m 6.61458,-6.61459 h 6.61458 v -6.6145804 -6.61458 h -6.61458 v 6.61458 z m -6.61458,13.22917 v 6.61458 h 6.61458 v -6.61458 z m 6.61458,6.61458 v 6.614586 6.614583 h 6.61458 v -6.614583 -6.614586 z m -13.22917,-6.61458 h -6.61458 v 6.61458 h 6.61458 z m -6.61458,6.61458 h -6.61458 v 6.614586 6.614583 h 6.61458 v -6.614583 z m 33.07292,-33.0729104 v 6.61458 6.6145804 h 6.61458 v -6.6145804 -6.61458 z m 6.61458,13.2291604 v 6.61459 h 6.61458 v -6.61459 z m 6.61458,6.61459 v 6.61458 6.61458 6.614586 6.614583 h 6.61459 v -6.614583 -6.614586 -6.61458 -6.61458 z m 6.61459,0 H 952.5 v -6.61459 h -6.61458 z M 952.5,11.160037 h 6.61458 v -6.6145804 -6.61458 H 952.5 v 6.61458 z m 13.22917,-13.2291604 v 6.61458 h 6.61458 6.61458 6.61459 6.61458 v 6.6145804 h 6.61458 v -6.6145804 -6.61458 h -6.61458 -6.61458 -6.61459 -6.61458 z M 992.1875,11.160037 h -6.61458 v 6.61459 h 6.61458 z m -6.61458,6.61459 h -6.61459 v 6.61458 h 6.61459 z m -6.61459,6.61458 h -6.61458 v 6.61458 h 6.61458 z m -6.61458,6.61458 h -6.61458 v 6.614586 6.614583 h 6.61458 6.61458 6.61459 6.61458 6.61458 v -6.614583 h -6.61458 -6.61458 -6.61459 -6.61458 z m 39.68745,-33.0729104 v 6.61458 h -6.6145 v 6.6145804 h 6.6145 v 6.61459 6.61458 6.61458 6.614586 6.614583 h 6.6146 v -6.614583 -6.614586 -6.61458 -6.61458 -6.61459 -6.6145804 -6.61458 z m 19.8438,0 v 6.61458 h 6.6146 6.6146 6.6145 v -6.61458 h -6.6145 -6.6146 z m 19.8437,6.61458 v 6.6145804 6.61459 h 6.6146 v -6.61459 -6.6145804 z m 0,13.2291704 h -6.6145 -6.6146 v 6.61458 h 6.6146 6.6145 z m -13.2291,6.61458 h -6.6146 -6.6146 v 6.61458 6.614586 6.614583 h 6.6146 6.6146 6.6146 6.6145 6.6146 v -6.614583 h -6.6146 -6.6145 -6.6146 -6.6146 v -6.614586 h 6.6146 z M 1031.875,4.5454566 h -6.6146 v 6.6145804 h 6.6146 z m 33.0729,-6.61458 v 6.61458 h 6.6146 6.6146 6.6146 6.6145 v -6.61458 h -6.6145 -6.6146 -6.6146 z m 26.4583,6.61458 v 6.6145804 6.61459 h 6.6146 v -6.61459 -6.6145804 z m 0,13.2291704 h -6.6145 -6.6146 -6.6146 v 6.61458 h 6.6146 6.6146 6.6145 z m 0,6.61458 v 6.61458 6.614586 h 6.6146 v -6.614586 -6.61458 z m 0,13.229166 h -6.6145 -6.6146 -6.6146 -6.6146 v 6.614583 h 6.6146 6.6146 6.6146 6.6145 z m 13.2292,-39.6874964 v 6.61458 6.6145804 6.61459 6.61458 h 6.6146 6.6146 6.6146 6.6145 v 6.61458 6.614586 6.614583 h 6.6146 v -6.614583 -6.614586 -6.61458 -6.61458 -6.61459 -6.6145804 -6.61458 h -6.6146 v 6.61458 6.6145804 6.61459 h -6.6145 -6.6146 -6.6146 v -6.61459 -6.6145804 -6.61458 z m 39.6875,0 v 6.61458 6.6145804 6.61459 6.61458 h 6.6146 6.6146 6.6146 6.6145 v -6.61458 h -6.6145 -6.6146 -6.6146 v -6.61459 -6.6145804 h 6.6146 6.6146 6.6145 6.6146 v -6.61458 h -6.6146 -6.6145 -6.6146 -6.6146 z m 26.4583,26.4583304 v 6.61458 6.614586 h 6.6146 v -6.614586 -6.61458 z m 0,13.229166 h -6.6145 -6.6146 -6.6146 -6.6146 v 6.614583 h 6.6146 6.6146 6.6146 6.6145 z m 13.2292,-39.6874964 v 6.61458 6.6145804 6.61459 6.61458 6.61458 6.614586 6.614583 h 6.6146 6.6146 6.6146 6.6145 6.6146 v -6.614583 -6.614586 -6.61458 -6.61458 h -6.6146 -6.6145 -6.6146 -6.6146 v -6.61459 -6.6145804 h 6.6146 6.6146 6.6145 6.6146 v -6.61458 h -6.6146 -6.6145 -6.6146 -6.6146 z m 39.6875,0 v 6.61458 h 6.6146 6.6146 6.6146 6.6145 v 6.6145804 6.61459 6.61458 6.61458 6.614586 6.614583 h 6.6146 v -6.614583 -6.614586 -6.61458 -6.61458 -6.61459 -6.6145804 -6.61458 h -6.6146 -6.6145 -6.6146 -6.6146 z m 46.3021,0 v 6.61458 h 6.6146 6.6146 6.6145 v -6.61458 h -6.6145 -6.6146 z m 19.8437,6.61458 v 6.6145804 6.61459 h 6.6146 v -6.61459 -6.6145804 z m 0,13.2291704 h -6.6145 -6.6146 H 1270 v 6.61458 h 6.6146 6.6146 6.6145 z m 0,6.61458 v 6.61458 6.614586 h 6.6146 v -6.614586 -6.61458 z m 0,13.229166 h -6.6145 -6.6146 H 1270 v 6.614583 h 6.6146 6.6146 6.6145 z m -19.8437,0 v -6.614586 -6.61458 h -6.6146 v 6.61458 6.614586 z m 0,-19.843746 v -6.61459 -6.6145804 h -6.6146 v 6.6145804 6.61459 z m 39.6875,-19.8437504 v 6.61458 h 6.6146 6.6146 6.6145 v 6.6145804 6.61459 h -6.6145 -6.6146 -6.6146 v 6.61458 h 6.6146 6.6146 6.6145 v 6.61458 6.614586 6.614583 h 6.6146 v -6.614583 -6.614586 -6.61458 -6.61458 -6.61459 -6.6145804 -6.61458 h -6.6146 -6.6145 -6.6146 z m 0,19.8437504 v -6.61459 -6.6145804 h -6.6146 v 6.6145804 6.61459 z m 39.6875,-19.8437504 v 6.61458 h 6.6146 6.6146 6.6145 v -6.61458 h -6.6145 -6.6146 z m 19.8437,6.61458 v 6.6145804 6.61459 6.61458 6.61458 6.614586 h 6.6146 v -6.614586 -6.61458 -6.61458 -6.61459 -6.6145804 z m 0,33.0729164 h -6.6145 -6.6146 -6.6146 v 6.614583 h 6.6146 6.6146 6.6145 z m -19.8437,0 v -6.614586 -6.61458 -6.61458 -6.61459 -6.6145804 h -6.6146 v 6.6145804 6.61459 6.61458 6.61458 6.614586 z m 52.9167,-39.6874964 v 6.61458 h 6.6145 6.6146 6.6146 v -6.61458 h -6.6146 -6.6146 z m 19.8437,6.61458 v 6.6145804 h 6.6146 V 4.5454566 Z m 0,6.6145804 h -6.6146 v 6.61459 h 6.6146 z m -6.6146,6.61459 h -6.6146 v 6.61458 6.61458 h 6.6146 v -6.61458 z M 1402.2917,4.5454566 h -6.6146 v 6.6145804 6.61459 h 6.6146 v -6.61459 z m 33.0729,-6.61458 v 6.61458 6.6145804 6.61459 6.61458 6.61458 h 6.6146 v -6.61458 -6.61458 -6.61459 -6.6145804 -6.61458 z m 52.9166,0 v 6.61458 h 6.6146 v -6.61458 z m 6.6146,6.61458 v 6.6145804 6.61459 6.61458 6.61458 6.614586 h 6.6146 v -6.614586 -6.61458 -6.61458 -6.61459 -6.6145804 z m 0,33.0729164 h -6.6146 v 6.614583 h 6.6146 z m 19.8438,-39.6874964 v 6.61458 h 6.6146 v -6.61458 z m 0,6.61458 h -6.6146 v 6.6145804 6.61459 6.61458 6.61458 6.614586 h 6.6146 v -6.614586 -6.61458 -6.61458 -6.61459 z m 0,33.0729164 v 6.614583 h 6.6146 v -6.614583 z m 13.2291,-39.6874964 v 6.61458 6.6145804 6.61459 6.61458 6.61458 6.614586 6.614583 h 6.6146 6.6146 v -6.614583 h -6.6146 v -6.614586 -6.61458 -6.61458 -6.61459 -6.6145804 h 6.6146 v -6.61458 h -6.6146 z m 19.8438,0 v 6.61458 h 6.6146 v 6.6145804 6.61459 6.61458 6.61458 6.614586 h -6.6146 v 6.614583 h 6.6146 6.6146 v -6.614583 -6.614586 -6.61458 -6.61458 -6.61459 -6.6145804 -6.61458 h -6.6146 z m 33.0729,0 v 6.61458 h 6.6146 v -6.61458 z m 0,6.61458 h -6.6146 v 6.6145804 6.61459 h -6.6146 v 6.61458 h 6.6146 v 6.61458 6.614586 h 6.6146 v -6.614586 -6.61458 -6.61458 -6.61459 z m 0,33.0729164 v 6.614583 h 6.6146 v -6.614583 z m 13.2292,-39.6874964 v 6.61458 h 6.6146 v -6.61458 z m 6.6146,6.61458 v 6.6145804 6.61459 6.61458 6.61458 6.614586 h 6.6145 v -6.614586 -6.61458 h 6.6146 v -6.61458 h -6.6146 v -6.61459 -6.6145804 z m 0,33.0729164 h -6.6146 v 6.614583 h 6.6146 z M 535.78125,4.5454566 h 6.61458 6.61459 6.61458 v 6.6145804 6.61459 6.61458 6.61458 6.614586 h -6.61458 -6.61459 -6.61458 v -6.614586 -6.61458 -6.61458 -6.61459 z m 1098.02085,0 v 6.6145804 h 6.6146 V 4.5454566 Z m 0,6.6145804 h -6.6146 v 6.61459 h 6.6146 z m -6.6146,6.61459 h -6.6146 v 6.61458 h 6.6146 z m 0,6.61458 v 6.61458 h 6.6146 v -6.61458 z m 6.6146,6.61458 v 6.614586 h 6.6146 v -6.614586 z m 13.2291,-26.4583304 v 6.6145804 h 6.6146 V 4.5454566 Z m 6.6146,6.6145804 v 6.61459 h 6.6146 v -6.61459 z m 6.6146,6.61459 v 6.61458 h 6.6146 v -6.61458 z m 0,6.61458 h -6.6146 v 6.61458 h 6.6146 z m -6.6146,6.61458 h -6.6146 v 6.614586 h 6.6146 z m -205.0521,-19.84375 v 6.61459 h 6.6146 v -6.61459 z m 13.2292,6.61459 v 6.61458 h 6.6146 6.6146 6.6146 v -6.61458 h -6.6146 -6.6146 z m -271.1979,6.61458 h 6.6146 6.6146 6.6145 v 6.61458 6.614586 h -6.6145 -6.6146 -6.6146 v -6.614586 z m 191.8229,13.229166 v 6.614583 h 6.6146 v -6.614583 z m 26.4583,0 v 6.614583 h 6.6146 v -6.614583 z m 26.4584,0 v 6.614583 h 6.6146 v -6.614583 z m 13.2291,0 v 6.614583 h 6.6146 V 37.618373 Z M 6.6145828,57.462123 v 6.614583 h 6.6145842 6.614583 6.614583 V 57.462123 H 19.84375 13.229167 Z m 19.8437502,6.614583 v 6.614584 6.614583 H 19.84375 13.229167 6.6145828 V 70.69129 64.076706 H -4.9999958e-7 v 6.614584 6.614583 6.614583 6.614584 6.614583 6.614587 H 6.6145828 V 97.149623 90.53504 83.920456 h 6.6145842 6.614583 6.614583 v 6.614584 6.614583 6.614587 h 6.614584 V 97.149623 90.53504 83.920456 77.305873 70.69129 64.076706 Z M 39.6875,57.462123 v 6.614583 6.614584 6.614583 6.614583 6.614584 6.614583 6.614587 h 6.614583 6.614584 6.614583 6.614583 V 97.149623 H 59.53125 52.916667 46.302083 V 90.53504 83.920456 77.305873 h 6.614584 6.614583 6.614583 V 70.69129 H 59.53125 52.916667 46.302083 v -6.614584 h 6.614584 6.614583 6.614583 V 57.462123 H 59.53125 52.916667 46.302083 Z m 26.458333,6.614583 v 6.614584 h 6.614584 v -6.614584 z m 0,13.229167 v 6.614583 6.614584 6.614583 h 6.614584 V 90.53504 83.920456 77.305873 Z m 19.84375,-19.84375 v 6.614583 h 6.614584 6.614583 6.61458 v -6.614583 h -6.61458 -6.614583 z m 19.843747,6.614583 v 6.614584 h 6.61459 v -6.614584 z m -19.843747,0 H 79.375 v 6.614584 6.614583 6.614583 6.614584 6.614583 h 6.614583 V 90.53504 83.920456 77.305873 70.69129 Z m 0,33.072917 v 6.614587 h 6.614584 6.614583 6.61458 v -6.614587 h -6.61458 -6.614583 z m 19.843747,0 h 6.61459 V 90.53504 h -6.61459 z m 13.22917,-39.6875 v 6.614583 6.614584 6.614583 6.614583 6.614584 6.614583 6.614587 h 6.61458 6.61459 6.61458 6.61458 v -6.614587 h -6.61458 -6.61458 -6.61459 V 90.53504 83.920456 77.305873 70.69129 64.076706 h 6.61459 6.61458 6.61458 v -6.614583 h -6.61458 -6.61458 -6.61459 z m 26.45833,6.614583 v 6.614584 6.614583 6.614583 6.614584 6.614583 h 6.61459 V 90.53504 83.920456 77.305873 70.69129 64.076706 Z M 158.75,57.462123 v 6.614583 6.614584 6.614583 6.614583 6.614584 6.614583 6.614587 h 6.61458 6.61459 6.61458 6.61458 6.61459 v -6.614587 h -6.61459 -6.61458 -6.61458 -6.61459 V 90.53504 83.920456 77.305873 h 6.61459 6.61458 6.61458 V 70.69129 h -6.61458 -6.61458 -6.61459 v -6.614584 h 6.61459 6.61458 6.61458 6.61459 v -6.614583 h -6.61459 -6.61458 -6.61458 -6.61459 z m 39.6875,0 v 6.614583 6.614584 6.614583 6.614583 6.614584 6.614583 6.614587 h 6.61458 V 97.149623 90.53504 83.920456 77.305873 h 6.61459 6.61458 6.61458 V 70.69129 h -6.61458 -6.61458 -6.61459 v -6.614584 h 6.61459 6.61458 6.61458 6.61459 v -6.614583 h -6.61459 -6.61458 -6.61458 -6.61459 z m 46.30208,0 v 6.614583 h 6.61459 6.61458 6.61458 6.61459 v -6.614583 h -6.61459 -6.61458 -6.61458 z m 0,6.614583 H 238.125 v 6.614584 6.614583 6.614583 6.614584 6.614583 h 6.61458 V 90.53504 83.920456 77.305873 70.69129 Z m 0,33.072917 v 6.614587 h 6.61459 6.61458 6.61458 6.61459 V 97.149623 90.53504 83.920456 77.305873 70.69129 h -6.61459 -6.61458 v 6.614583 h 6.61458 v 6.614583 6.614584 6.614583 h -6.61458 -6.61458 z m 33.07292,-39.6875 v 6.614583 6.614584 6.614583 6.614583 6.614584 6.614583 6.614587 h 6.61458 V 97.149623 90.53504 83.920456 77.305873 h 6.61459 6.61458 6.61458 v 6.614583 6.614584 6.614583 6.614587 h 6.61459 V 97.149623 90.53504 83.920456 77.305873 70.69129 64.076706 57.462123 h -6.61459 v 6.614583 6.614584 h -6.61458 -6.61458 -6.61459 v -6.614584 -6.614583 z m 39.6875,0 v 6.614583 6.614584 6.614583 6.614583 6.614584 6.614583 6.614587 h 6.61458 V 97.149623 90.53504 83.920456 77.305873 70.69129 64.076706 57.462123 Z m 39.6875,0 v 6.614583 6.614584 6.614583 6.614583 6.614584 6.614583 h 6.61458 V 90.53504 83.920456 77.305873 70.69129 64.076706 57.462123 Z m 0,39.6875 h -6.61458 -6.61459 -6.61458 v 6.614587 h 6.61458 6.61459 6.61458 z m -19.84375,0 V 90.53504 h -6.61458 v 6.614583 z m 33.07292,-39.6875 v 6.614583 6.614584 6.614583 6.614583 6.614584 6.614583 6.614587 h 6.61458 V 97.149623 90.53504 83.920456 h 6.61458 v -6.614583 h -6.61458 V 70.69129 64.076706 57.462123 Z m 13.22916,19.84375 h 6.61459 V 70.69129 h -6.61459 z m 6.61459,-6.614583 h 6.61458 v -6.614584 h -6.61458 z m 6.61458,-6.614584 h 6.61458 V 57.462123 H 396.875 Z m -13.22917,19.84375 v 6.614584 h 6.61459 v -6.614584 z m 6.61459,6.614584 v 6.614583 H 396.875 V 90.53504 Z m 6.61458,6.614583 v 6.614587 h 6.61458 v -6.614587 z m 13.22917,-39.6875 v 6.614583 6.614584 6.614583 6.614583 6.614584 6.614583 6.614587 h 6.61458 6.61458 6.61459 6.61458 6.61458 v -6.614587 h -6.61458 -6.61458 -6.61459 -6.61458 V 90.53504 83.920456 77.305873 70.69129 64.076706 57.462123 Z m 39.6875,0 v 6.614583 6.614584 6.614583 6.614583 6.614584 6.614583 6.614587 h 6.61458 V 97.149623 90.53504 83.920456 77.305873 h 6.61458 V 70.69129 64.076706 h -6.61458 v -6.614583 z m 13.22916,19.84375 v 6.614583 6.614584 h 6.61459 v -6.614584 -6.614583 z m 6.61459,0 H 476.25 v 6.614583 6.614584 6.614583 6.614587 h 6.61458 V 97.149623 90.53504 83.920456 77.305873 70.69129 64.076706 57.462123 H 476.25 v 6.614583 h -6.61458 v 6.614584 z m 19.84375,-19.84375 v 6.614583 6.614584 6.614583 6.614583 6.614584 6.614583 6.614587 h 6.61458 V 97.149623 90.53504 83.920456 77.305873 h 6.61458 V 70.69129 h -6.61458 v -6.614584 -6.614583 z m 13.22916,19.84375 v 6.614583 h 6.61459 v -6.614583 z m 6.61459,6.614583 v 6.614584 h 6.61458 v 6.614583 6.614587 h 6.61458 V 97.149623 90.53504 83.920456 77.305873 70.69129 64.076706 57.462123 h -6.61458 v 6.614583 6.614584 6.614583 6.614583 z m 26.45833,-26.458333 v 6.614583 h 6.61458 6.61459 6.61458 v -6.614583 h -6.61458 -6.61459 z m 19.84375,6.614583 v 6.614584 6.614583 6.614583 6.614584 6.614583 h 6.61458 V 90.53504 83.920456 77.305873 70.69129 64.076706 Z m 0,33.072917 h -6.61458 -6.61459 -6.61458 v 6.614587 h 6.61458 6.61459 6.61458 z m -19.84375,0 V 90.53504 83.920456 77.305873 70.69129 64.076706 h -6.61458 v 6.614584 6.614583 6.614583 6.614584 6.614583 z m 33.07292,-39.6875 v 6.614583 6.614584 6.614583 6.614583 6.614584 6.614583 6.614587 h 6.61458 V 97.149623 90.53504 83.920456 h 6.61458 6.61459 6.61458 v -6.614583 h -6.61458 -6.61459 -6.61458 V 70.69129 64.076706 h 6.61458 6.61459 6.61458 v -6.614583 h -6.61458 -6.61459 -6.61458 z m 26.45833,6.614583 v 6.614584 6.614583 h 6.61458 V 70.69129 64.076706 Z m 19.84375,-6.614583 v 6.614583 h 6.61458 6.61459 H 635 v -6.614583 h -6.61458 -6.61459 z M 635,64.076706 v 6.614584 6.614583 6.614583 6.614584 h 6.61458 V 83.920456 77.305873 70.69129 64.076706 Z m 0,26.458334 h -6.61458 v 6.614583 H 635 Z m 0,6.614583 v 6.614587 h 6.61458 v -6.614587 z m -6.61458,0 h -6.61459 -6.61458 v 6.614587 h 6.61458 6.61459 z m -13.22917,0 V 90.53504 83.920456 77.305873 70.69129 64.076706 h -6.61458 v 6.614584 6.614583 6.614583 6.614584 6.614583 z m 33.07292,-39.6875 v 6.614583 6.614584 6.614583 6.614583 6.614584 6.614583 6.614587 h 6.61458 V 97.149623 90.53504 83.920456 h 6.61458 6.61459 v 6.614584 h 6.61458 v -6.614584 -6.614583 h -6.61458 -6.61459 -6.61458 V 70.69129 64.076706 h 6.61458 6.61459 6.61458 v -6.614583 h -6.61458 -6.61459 -6.61458 z m 26.45833,6.614583 v 6.614584 6.614583 h 6.61458 V 70.69129 64.076706 Z m 0,26.458334 v 6.614583 6.614587 h 6.61458 V 97.149623 90.53504 Z m 19.84375,-33.072917 v 6.614583 h 6.61458 6.61459 6.61458 v -6.614583 h -6.61458 -6.61459 z m 19.84375,6.614583 v 6.614584 h 6.61458 v -6.614584 z m -19.84375,0 h -6.61458 v 6.614584 6.614583 h 6.61458 V 70.69129 Z m 0,13.229167 v 6.614583 h 6.61458 6.61459 6.61458 v -6.614583 h -6.61458 -6.61459 z m 19.84375,6.614583 v 6.614584 6.614583 h 6.61458 V 90.53504 83.920456 Z m 0,13.229167 h -6.61458 -6.61459 -6.61458 v 6.614587 h 6.61458 6.61459 6.61458 z m -19.84375,0 V 90.53504 h -6.61458 v 6.614583 z m 33.07292,-39.6875 v 6.614583 h 6.61458 6.61458 v 6.614584 6.614583 6.614583 6.614584 6.614583 6.614587 h 6.61459 V 97.149623 90.53504 83.920456 77.305873 70.69129 64.076706 h 6.61458 6.61458 v -6.614583 h -6.61458 -6.61458 -6.61459 -6.61458 z m 39.6875,0 v 6.614583 6.614584 6.614583 6.614583 6.614584 6.614583 h 6.61458 V 90.53504 83.920456 77.305873 70.69129 64.076706 57.462123 Z m 6.61458,39.6875 v 6.614587 h 6.61458 6.61459 6.61458 v -6.614587 h -6.61458 -6.61459 z m 19.84375,0 h 6.61458 V 90.53504 83.920456 77.305873 70.69129 64.076706 57.462123 H 793.75 v 6.614583 6.614584 6.614583 6.614583 6.614584 z m 13.22917,-39.6875 v 6.614583 6.614584 6.614583 h 6.61458 V 70.69129 64.076706 57.462123 Z m 6.61458,19.84375 v 6.614583 6.614584 6.614583 h 6.61458 V 90.53504 83.920456 77.305873 Z m 6.61458,19.84375 v 6.614587 h 6.61459 v -6.614587 z m 6.61459,0 h 6.61458 V 90.53504 83.920456 77.305873 h -6.61458 v 6.614583 6.614584 z m 6.61458,-19.84375 h 6.61458 V 70.69129 64.076706 57.462123 h -6.61458 v 6.614583 6.614584 z m 13.22917,-19.84375 v 6.614583 6.614584 6.614583 h 6.61458 V 70.69129 64.076706 57.462123 Z m 6.61458,19.84375 v 6.614583 6.614584 6.614583 h 6.61458 V 90.53504 83.920456 77.305873 Z m 6.61458,19.84375 v 6.614587 h 6.61459 v -6.614587 z m 6.61459,0 H 873.125 V 90.53504 83.920456 h -6.61458 v 6.614584 z m 6.61458,0 v 6.614587 h 6.61458 v -6.614587 z m 6.61458,0 h 6.61459 V 90.53504 83.920456 77.305873 h -6.61459 v 6.614583 6.614584 z m 6.61459,-19.84375 h 6.61458 V 70.69129 64.076706 57.462123 h -6.61458 v 6.614583 6.614584 z m 13.22916,-19.84375 v 6.614583 6.614584 h 6.61459 v -6.614584 -6.614583 z m 6.61459,13.229167 v 6.614583 h 6.61458 V 70.69129 Z m 6.61458,6.614583 v 6.614583 h 6.61458 v -6.614583 z m 6.61458,0 h 6.61459 V 70.69129 h -6.61459 z m 6.61459,-6.614583 h 6.61458 v -6.614584 -6.614583 h -6.61458 v 6.614583 z m -6.61459,13.229166 v 6.614584 h 6.61459 v -6.614584 z m 6.61459,6.614584 v 6.614583 6.614587 h 6.61458 V 97.149623 90.53504 Z M 912.8125,83.920456 h -6.61458 v 6.614584 h 6.61458 z m -6.61458,6.614584 h -6.61459 v 6.614583 6.614587 h 6.61459 v -6.614587 z m 33.07291,-33.072917 v 6.614583 6.614584 h 6.61459 v -6.614584 -6.614583 z m 6.61459,13.229167 v 6.614583 6.614583 H 952.5 V 77.305873 70.69129 Z M 952.5,83.920456 v 6.614584 6.614583 6.614587 h 6.61458 V 97.149623 90.53504 83.920456 Z m 6.61458,0 h 6.61459 V 77.305873 70.69129 h -6.61459 v 6.614583 z m 6.61459,-13.229166 h 6.61458 v -6.614584 -6.614583 h -6.61458 v 6.614583 z m 13.22916,-13.229167 v 6.614583 h 6.61459 6.61458 6.61458 6.61462 v 6.614584 h 6.6145 v -6.614584 -6.614583 h -6.6145 -6.61462 -6.61458 -6.61458 z m 26.45837,13.229167 h -6.61462 v 6.614583 h 6.61462 z m -6.61462,6.614583 h -6.61458 v 6.614583 h 6.61458 z m -6.61458,6.614583 h -6.61458 v 6.614584 h 6.61458 z m -6.61458,6.614584 h -6.61459 v 6.614583 6.614587 h 6.61459 6.61458 6.61458 6.61462 6.6145 v -6.614587 h -6.6145 -6.61462 -6.61458 -6.61458 z m 39.68748,-33.072917 v 6.614583 h -6.6146 v 6.614584 h 6.6146 v 6.614583 6.614583 6.614584 6.614583 6.614587 h 6.6146 V 97.149623 90.53504 83.920456 77.305873 70.69129 64.076706 57.462123 Z m 19.8438,0 v 6.614583 h 6.6145 6.6146 6.6146 v -6.614583 h -6.6146 -6.6146 z m 19.8437,6.614583 v 6.614584 6.614583 h 6.6146 V 70.69129 64.076706 Z m 0,13.229167 h -6.6146 v 6.614583 h 6.6146 z m -6.6146,6.614583 h -6.6146 v 6.614584 h 6.6146 z m -6.6146,6.614584 h -6.6145 v 6.614583 h -6.6146 v 6.614587 h 6.6146 6.6145 6.6146 6.6146 6.6146 v -6.614587 h -6.6146 -6.6146 -6.6146 z m -6.6145,-26.458334 h -6.6146 v 6.614584 h 6.6146 z m 39.6875,-6.614583 v 6.614583 h 6.6145 6.6146 6.6146 v -6.614583 h -6.6146 -6.6146 z m 19.8437,6.614583 v 6.614584 h 6.6146 v -6.614584 z m 0,6.614584 h -6.6146 -6.6146 v 6.614583 h 6.6146 6.6146 z m 0,6.614583 v 6.614583 6.614584 6.614583 h 6.6146 V 90.53504 83.920456 77.305873 Z m 0,19.84375 h -6.6146 -6.6146 -6.6145 v 6.614587 h 6.6145 6.6146 6.6146 z m -19.8437,0 V 90.53504 h -6.6146 v 6.614583 z m 0,-33.072917 h -6.6146 v 6.614584 h 6.6146 z m 52.9166,-6.614583 v 6.614583 h -6.6146 v 6.614584 h 6.6146 v 6.614583 6.614583 h -6.6146 -6.6145 v -6.614583 h -6.6146 v 6.614583 6.614584 h 6.6146 6.6145 6.6146 v 6.614583 6.614587 h 6.6146 V 97.149623 90.53504 h 6.6146 v -6.614584 h -6.6146 V 77.305873 70.69129 64.076706 57.462123 Z m -13.2291,19.84375 h 6.6145 V 70.69129 h -6.6145 z m 33.0729,-19.84375 v 6.614583 6.614584 6.614583 h 6.6146 6.6145 6.6146 6.6146 V 70.69129 h -6.6146 -6.6146 -6.6145 v -6.614584 h 6.6145 6.6146 6.6146 6.6146 v -6.614583 h -6.6146 -6.6146 -6.6146 -6.6145 z m 26.4583,19.84375 v 6.614583 6.614584 6.614583 h 6.6146 V 90.53504 83.920456 77.305873 Z m 0,19.84375 h -6.6146 -6.6146 -6.6145 v 6.614587 h 6.6145 6.6146 6.6146 z m -19.8437,0 V 90.53504 h -6.6146 v 6.614583 z m 39.6875,-39.6875 v 6.614583 h 6.6145 6.6146 6.6146 v -6.614583 h -6.6146 -6.6146 z m 0,6.614583 h -6.6146 v 6.614584 6.614583 6.614583 6.614584 6.614583 h 6.6146 V 90.53504 83.920456 77.305873 h 6.6145 6.6146 6.6146 V 70.69129 h -6.6146 -6.6146 -6.6145 z m 19.8437,13.229167 v 6.614583 6.614584 6.614583 h 6.6146 V 90.53504 83.920456 77.305873 Z m 0,19.84375 h -6.6146 -6.6146 -6.6145 v 6.614587 h 6.6145 6.6146 6.6146 z m 13.2292,-39.6875 v 6.614583 h 6.6146 6.6145 6.6146 6.6146 v 6.614584 6.614583 H 1270 V 70.69129 64.076706 57.462123 h -6.6146 -6.6146 -6.6146 -6.6145 z m 26.4583,19.84375 h -6.6146 v 6.614583 h 6.6146 z m -6.6146,6.614583 h -6.6146 v 6.614584 h 6.6146 z m -6.6146,6.614584 h -6.6145 v 6.614583 h 6.6145 z m -6.6145,6.614583 h -6.6146 v 6.614587 h 6.6146 z m 39.6875,-39.6875 v 6.614583 h 6.6145 6.6146 6.6146 v -6.614583 h -6.6146 -6.6146 z m 19.8437,6.614583 v 6.614584 h 6.6146 v -6.614584 z m 0,6.614584 h -6.6146 -6.6146 -6.6145 v 6.614583 h 6.6145 6.6146 6.6146 z m 0,6.614583 v 6.614583 6.614584 6.614583 h 6.6146 V 90.53504 83.920456 77.305873 Z m 0,19.84375 h -6.6146 -6.6146 -6.6145 v 6.614587 h 6.6145 6.6146 6.6146 z m -19.8437,0 V 90.53504 83.920456 77.305873 h -6.6146 v 6.614583 6.614584 6.614583 z m 0,-26.458333 v -6.614584 h -6.6146 v 6.614584 z m 39.6875,-13.229167 v 6.614583 h 6.6145 6.6146 6.6146 v -6.614583 h -6.6146 -6.6146 z m 19.8437,6.614583 v 6.614584 6.614583 h -6.6146 -6.6146 -6.6145 v 6.614583 h 6.6145 6.6146 6.6146 v 6.614584 6.614583 h 6.6146 V 90.53504 83.920456 77.305873 70.69129 64.076706 Z m 0,33.072917 h -6.6146 -6.6146 -6.6145 v 6.614587 h 6.6145 6.6146 6.6146 z m -19.8437,0 V 90.53504 h -6.6146 v 6.614583 z m 0,-19.84375 V 70.69129 64.076706 h -6.6146 v 6.614584 6.614583 z m 39.6875,-19.84375 v 6.614583 h 6.6145 6.6146 6.6146 v -6.614583 h -6.6146 -6.6146 z m 19.8437,6.614583 v 6.614584 6.614583 6.614583 6.614584 6.614583 h 6.6146 V 90.53504 83.920456 77.305873 70.69129 64.076706 Z m 0,33.072917 h -6.6146 -6.6146 -6.6145 v 6.614587 h 6.6145 6.6146 6.6146 z m -19.8437,0 V 90.53504 83.920456 77.305873 70.69129 64.076706 h -6.6146 v 6.614584 6.614583 6.614583 6.614584 6.614583 z m 52.9166,-39.6875 v 6.614583 h 6.6146 6.6146 6.6146 v -6.614583 h -6.6146 -6.6146 z m 19.8438,6.614583 v 6.614584 6.614583 h 6.6146 V 70.69129 64.076706 Z m 0,13.229167 h -6.6146 v 6.614583 h 6.6146 z m -6.6146,6.614583 h -6.6146 v 6.614584 h 6.6146 z m -13.2292,-19.84375 h -6.6146 v 6.614584 h 6.6146 z m 33.0729,-6.614583 v 6.614583 6.614584 6.614583 6.614583 6.614584 h 6.6146 V 83.920456 77.305873 70.69129 64.076706 57.462123 Z m 52.9167,0 v 6.614583 h 6.6146 v -6.614583 z m 6.6146,6.614583 v 6.614584 h 6.6146 v -6.614584 z m 6.6146,6.614584 v 6.614583 6.614583 6.614584 h 6.6146 V 83.920456 77.305873 70.69129 Z m 0,19.84375 h -6.6146 v 6.614583 h 6.6146 z m -6.6146,6.614583 h -6.6146 v 6.614587 h 6.6146 z m 33.0729,-39.6875 v 6.614583 h 6.6146 v -6.614583 z m 0,6.614583 h -6.6146 v 6.614584 h 6.6146 z m -6.6146,6.614584 h -6.6146 v 6.614583 6.614583 6.614584 h 6.6146 v -6.614584 -6.614583 z m 0,19.84375 v 6.614583 h 6.6146 V 90.53504 Z m 6.6146,6.614583 v 6.614587 h 6.6146 v -6.614587 z m 13.2292,-39.6875 v 6.614583 6.614584 6.614583 6.614583 6.614584 6.614583 6.614587 h 6.6146 6.6145 v -6.614587 h -6.6145 V 90.53504 83.920456 77.305873 70.69129 64.076706 h 6.6145 v -6.614583 h -6.6145 z m 19.8437,0 v 6.614583 h 6.6146 v 6.614584 6.614583 6.614583 6.614584 6.614583 h -6.6146 v 6.614587 h 6.6146 6.6146 V 97.149623 90.53504 83.920456 77.305873 70.69129 64.076706 57.462123 h -6.6146 z m 33.0729,0 v 6.614583 h 6.6146 v -6.614583 z m 0,6.614583 h -6.6145 v 6.614584 6.614583 h 6.6145 V 70.69129 Z m -6.6145,13.229167 h -6.6146 v 6.614583 h 6.6146 z m 0,6.614583 v 6.614584 6.614583 h 6.6145 V 90.53504 83.920456 Z m 6.6145,13.229167 v 6.614587 h 6.6146 v -6.614587 z m 13.2292,-39.6875 v 6.614583 h 6.6146 v -6.614583 z m 6.6146,6.614583 v 6.614584 6.614583 h 6.6146 V 70.69129 64.076706 Z m 6.6146,13.229167 v 6.614583 h 6.6146 v -6.614583 z m 0,6.614583 h -6.6146 v 6.614584 6.614583 h 6.6146 V 90.53504 Z m -6.6146,13.229167 h -6.6146 v 6.614587 h 6.6146 z m 33.0729,-33.072917 v 6.614584 h 6.6146 v -6.614584 z m 0,6.614584 h -6.6146 v 6.614583 h 6.6146 z m -6.6146,6.614583 h -6.6146 v 6.614583 h 6.6146 z m 0,6.614583 v 6.614584 h 6.6146 v -6.614584 z m 6.6146,6.614584 v 6.614583 h 6.6146 V 90.53504 Z m 13.2292,-26.458334 v 6.614584 h 6.6146 v -6.614584 z m 6.6146,6.614584 v 6.614583 h 6.6145 V 70.69129 Z m 6.6145,6.614583 v 6.614583 h 6.6146 v -6.614583 z m 0,6.614583 h -6.6145 v 6.614584 h 6.6145 z m -6.6145,6.614584 h -6.6146 v 6.614583 h 6.6146 z M 1461.8229,70.69129 v 6.614583 h 6.6146 V 70.69129 Z m -92.6042,6.614583 v 6.614583 h 6.6146 v -6.614583 z m 105.8334,0 v 6.614583 h 6.6146 6.6145 6.6146 v -6.614583 h -6.6146 -6.6145 z m -79.375,19.84375 v 6.614587 h 6.6146 v -6.614587 z m 26.4583,0 v 6.614587 h 6.6146 v -6.614587 z m 26.4583,0 v 6.614587 h 6.6146 v -6.614587 z m 13.2292,0 v 6.614587 h 6.6146 V 97.149623 Z M 13.229167,116.99337 v 6.61459 6.61458 h 6.614583 v 6.61458 6.61459 h -6.614583 v -6.61459 -6.61458 H 6.6145828 v 6.61458 6.61459 6.61458 h 6.6145842 6.614583 6.614583 v 6.61458 6.61459 h 6.614584 6.614583 v -6.61459 -6.61458 h -6.614583 v -6.61458 -6.61459 -6.61458 h -6.614584 v -6.61458 -6.61459 H 19.84375 Z M 6.6145828,150.06629 H -4.9999958e-7 v 6.61458 6.61459 H 6.6145828 v -6.61459 z M 46.302083,116.99337 v 6.61459 6.61458 6.61458 6.61459 6.61458 6.61458 6.61459 h 6.614584 6.614583 6.614583 6.614584 6.614583 v -6.61459 h 6.614583 v -6.61458 -6.61458 -6.61459 H 79.375 v -6.61458 h 6.614583 v -6.61458 H 79.375 v -6.61459 H 72.760417 66.145833 59.53125 52.916667 Z m 52.916667,0 v 6.61459 h -6.614583 v 6.61458 6.61458 6.61459 6.61458 6.61458 h 6.614583 v 6.61459 h 6.61458 6.61459 6.61458 v -6.61459 h -6.61458 -6.61459 v -6.61458 -6.61458 -6.61459 -6.61458 -6.61458 h 6.61459 6.61458 v 6.61458 h 6.61458 v -6.61458 -6.61459 h -6.61458 -6.61458 -6.61459 z m 19.84375,39.6875 h 6.61458 v -6.61458 h -6.61458 z m 13.22917,-39.6875 v 6.61459 6.61458 6.61458 6.61459 6.61458 6.61458 6.61459 h 6.61458 6.61458 6.61459 6.61458 6.61458 v -6.61459 h 6.61459 v -6.61458 -6.61458 -6.61459 -6.61458 -6.61458 h -6.61459 v -6.61459 h -6.61458 -6.61458 -6.61459 -6.61458 z m 46.30208,0 v 6.61459 6.61458 6.61458 6.61459 6.61458 6.61458 6.61459 h 6.61458 6.61459 6.61458 6.61458 6.61459 v -6.61459 h -6.61459 -6.61458 -6.61458 v -6.61458 -6.61458 -6.61459 h 6.61458 6.61458 v -6.61458 h -6.61458 -6.61458 v -6.61458 h 6.61458 6.61458 6.61459 v -6.61459 h -6.61459 -6.61458 -6.61458 -6.61459 z m -119.0625,6.61459 h 6.614583 6.614584 v 6.61458 H 66.145833 59.53125 Z m 85.98958,0 h 6.61459 6.61458 v 6.61458 6.61458 6.61459 6.61458 6.61458 h -6.61458 -6.61459 v -6.61458 -6.61458 -6.61459 -6.61458 z m -85.98958,13.22916 h 6.614583 6.614584 v 6.61459 6.61458 6.61458 H 66.145833 59.53125 v -6.61458 -6.61458 z" />
  </g>
</svg>
